<svg width="174" height="24" viewBox="0 0 174 24" fill="none" xmlns="http://www.w3.org/2000/svg">
<g clip-path="url(#clip0_11190_1550)">
<path fill-rule="evenodd" clip-rule="evenodd" d="M0 2.52941C0 1.4086 0.893586 0.5 1.99588 0.5H20.624C21.7264 0.5 22.62 1.4086 22.62 2.52941V21.4705C22.62 22.5914 21.7264 23.5 20.624 23.5H1.99588C0.893586 23.5 0 22.5914 0 21.4705V2.52941ZM4.3244 2.9353C3.22211 2.9353 2.32853 3.84389 2.32853 4.9647V19.1705C2.32853 20.2914 3.22211 21.2 4.3244 21.2H18.2957C19.3979 21.2 20.2914 20.2914 20.2914 19.1705V4.9647C20.2914 3.84389 19.3979 2.9353 18.2957 2.9353H4.3244ZM4.25788 3.74705C3.70674 3.74705 3.25993 4.20136 3.25993 4.76177V19.4412C3.25993 20.0016 3.70674 20.4559 4.25788 20.4559H18.4952C19.0464 20.4559 19.493 20.0016 19.493 19.4412V4.76177C19.493 4.20136 19.0464 3.74705 18.4952 3.74705H4.25788ZM7.80257 10.5875L9.30352 13.2177H10.8895L9.23957 10.3602C9.67249 10.1581 10.0202 9.85879 10.2828 9.46186C10.5454 9.05783 10.6766 8.62124 10.6766 8.15223C10.6766 7.45953 10.4353 6.86785 9.9528 6.37717C9.4703 5.88652 8.88479 5.64117 8.19643 5.64117H5.2159V13.2177H6.68487V10.5875H7.80257ZM6.68487 9.27788V7.03741H8.19643C8.47318 7.03741 8.71087 7.14565 8.90958 7.36212C9.10838 7.5786 9.20764 7.84194 9.20764 8.15223C9.20764 8.46254 9.10838 8.72946 8.90958 8.95317C8.71087 9.16965 8.47318 9.27788 8.19643 9.27788H6.68487Z" fill="#0F1214"/>
<path d="M38.5568 19.0761L35.7241 14.1134H33.121V19.0761H30.9199V5.45299H36.2791C37.4786 5.45299 38.493 5.88114 39.3224 6.73745C40.1645 7.58078 40.5856 8.61224 40.5856 9.83183C40.5856 10.7011 40.3368 11.4991 39.8392 12.2256C39.3543 12.9392 38.7163 13.4581 37.9252 13.7825L40.9684 19.0761H38.5568ZM33.121 7.55483V12.1088H36.2791C36.8661 12.1088 37.3637 11.8883 37.772 11.4471C38.1803 11.006 38.3845 10.4676 38.3845 9.83183C38.3845 9.19609 38.1803 8.65766 37.772 8.21653C37.3637 7.77539 36.8661 7.55483 36.2791 7.55483H33.121ZM43.6464 15.1059C43.7995 15.8454 44.1504 16.4163 44.6991 16.8185C45.2478 17.2078 45.9177 17.4024 46.7088 17.4024C47.8061 17.4024 48.6291 17.0001 49.1778 16.1958L50.8813 17.2078C49.9371 18.622 48.5399 19.3291 46.6896 19.3291C45.1329 19.3291 43.876 18.849 42.919 17.8889C41.962 16.9158 41.4835 15.6898 41.4835 14.2107C41.4835 12.7575 41.9557 11.5444 42.8999 10.5714C43.8441 9.58529 45.0564 9.09229 46.5365 9.09229C47.9401 9.09229 49.0885 9.59184 49.9817 10.5908C50.8876 11.5898 51.3406 12.803 51.3406 14.2301C51.3406 14.4507 51.3152 14.7426 51.2641 15.1059H43.6464ZM43.6272 13.3933H49.2544C49.1141 12.6018 48.7887 12.0051 48.2782 11.6028C47.7806 11.2006 47.1936 10.9995 46.5174 10.9995C45.7518 10.9995 45.1138 11.2136 44.6034 11.6418C44.0929 12.0699 43.7676 12.6538 43.6272 13.3933ZM54.6423 12.031C54.6423 12.3554 54.8146 12.6148 55.1591 12.8094C55.5164 12.9911 55.9438 13.1533 56.4415 13.296C56.9519 13.4258 57.4622 13.5815 57.9727 13.7631C58.4831 13.9447 58.9105 14.2561 59.255 14.6972C59.6123 15.1254 59.791 15.6703 59.791 16.332C59.791 17.2661 59.4336 17.9992 58.7191 18.5311C58.0173 19.0631 57.1305 19.3291 56.0587 19.3291C55.1144 19.3291 54.3041 19.128 53.6279 18.7258C52.9516 18.3235 52.4603 17.7657 52.1541 17.0521L53.9341 16.0011C54.2658 16.9353 54.974 17.4024 56.0587 17.4024C57.1433 17.4024 57.6856 17.0391 57.6856 16.3125C57.6856 16.0011 57.5069 15.7481 57.1496 15.5535C56.8051 15.3589 56.3777 15.1968 55.8673 15.067C55.3696 14.9243 54.8656 14.7621 54.3552 14.5804C53.8448 14.3988 53.411 14.1004 53.0537 13.6852C52.7092 13.2571 52.5369 12.7186 52.5369 12.0699C52.5369 11.1747 52.8686 10.4546 53.5322 9.90968C54.2084 9.36476 55.0442 9.09229 56.0395 9.09229C56.8306 9.09229 57.5324 9.27393 58.1449 9.63722C58.7702 9.98752 59.2487 10.4805 59.5804 11.1163L57.8387 12.1088C57.5069 11.3693 56.9072 10.9995 56.0395 10.9995C55.6439 10.9995 55.3122 11.0904 55.0442 11.272C54.7763 11.4407 54.6423 11.6937 54.6423 12.031ZM67.9461 9.34529H70.0132V19.0761H67.9461V17.8305C67.3209 18.8295 66.332 19.3291 64.9794 19.3291C63.882 19.3291 62.9953 18.9723 62.3189 18.2587C61.6427 17.5451 61.3045 16.5655 61.3045 15.32V9.34529H63.3716V15.1059C63.3716 15.8324 63.563 16.3904 63.9458 16.7796C64.3286 17.1688 64.8518 17.3634 65.5153 17.3634C66.2426 17.3634 66.8296 17.1364 67.2762 16.6823C67.7228 16.2152 67.9461 15.5081 67.9461 14.561V9.34529ZM72.4304 19.0761V4.86914H74.4975V19.0761H72.4304ZM82.2377 11.3693H79.8644V16.0401C79.8644 16.4423 79.9536 16.7342 80.1323 16.9158C80.311 17.0845 80.5726 17.1818 80.9171 17.2078C81.2743 17.2208 81.7145 17.2142 82.2377 17.1883V19.0761C80.6555 19.2707 79.5199 19.1344 78.8308 18.6674C78.1418 18.1873 77.7973 17.3115 77.7973 16.0401V11.3693H76.0364V9.34529H77.7973V7.24345L79.8644 6.62068V9.34529H82.2377V11.3693ZM97.7185 18.0446C96.7746 18.9009 95.5557 19.3291 94.0628 19.3291C92.5699 19.3291 91.3519 18.9009 90.407 18.0446C89.4631 17.1753 88.9907 16.0141 88.9907 14.561V5.45299H91.1918V14.4248C91.1918 15.2551 91.4284 15.9168 91.9 16.4098C92.3854 16.9028 93.1058 17.1494 94.0628 17.1494C95.0198 17.1494 95.7349 16.9028 96.2065 16.4098C96.6919 15.9168 96.9338 15.2551 96.9338 14.4248V5.45299H99.1349V14.561C99.1349 16.0141 98.6633 17.1753 97.7185 18.0446ZM106.566 9.09229C107.664 9.09229 108.551 9.44906 109.227 10.1627C109.904 10.8763 110.241 11.8558 110.241 13.1014V19.0761H108.174V13.3154C108.174 12.5889 107.983 12.031 107.6 11.6418C107.217 11.2525 106.694 11.0579 106.03 11.0579C105.303 11.0579 104.717 11.2914 104.27 11.7585C103.823 12.2126 103.6 12.9132 103.6 13.8604V19.0761H101.533V9.34529H103.6V10.5908C104.225 9.59184 105.214 9.09229 106.566 9.09229ZM114.42 7.49645C114.164 7.75593 113.858 7.88568 113.501 7.88568C113.144 7.88568 112.831 7.75593 112.563 7.49645C112.308 7.22399 112.181 6.90612 112.181 6.54283C112.181 6.17955 112.308 5.86816 112.563 5.60868C112.818 5.33622 113.131 5.19999 113.501 5.19999C113.871 5.19999 114.183 5.33622 114.439 5.60868C114.694 5.86816 114.822 6.17955 114.822 6.54283C114.822 6.90612 114.688 7.22399 114.42 7.49645ZM112.468 19.0761V9.34529H114.535V19.0761H112.468ZM123.423 9.34529H125.681L121.949 19.0761H119.556L115.824 9.34529H118.083L120.762 16.7407L123.423 9.34529ZM128.243 15.1059C128.396 15.8454 128.748 16.4163 129.296 16.8185C129.845 17.2078 130.515 17.4024 131.306 17.4024C132.404 17.4024 133.227 17.0001 133.775 16.1958L135.478 17.2078C134.534 18.622 133.137 19.3291 131.287 19.3291C129.73 19.3291 128.473 18.849 127.516 17.8889C126.559 16.9158 126.081 15.6898 126.081 14.2107C126.081 12.7575 126.553 11.5444 127.497 10.5714C128.442 9.58529 129.654 9.09229 131.133 9.09229C132.538 9.09229 133.686 9.59184 134.579 10.5908C135.485 11.5898 135.938 12.803 135.938 14.2301C135.938 14.4507 135.912 14.7426 135.861 15.1059H128.243ZM128.224 13.3933H133.851C133.711 12.6018 133.386 12.0051 132.875 11.6028C132.378 11.2006 131.791 10.9995 131.114 10.9995C130.349 10.9995 129.711 11.2136 129.2 11.6418C128.691 12.0699 128.365 12.6538 128.224 13.3933ZM139.824 10.9801C140.347 9.77345 141.33 9.17014 142.771 9.17014V11.4471C141.981 11.3952 141.292 11.5898 140.704 12.031C140.117 12.4591 139.824 13.1728 139.824 14.1718V19.0761H137.757V9.34529H139.824V10.9801ZM145.819 12.031C145.819 12.3554 145.991 12.6148 146.336 12.8094C146.693 12.9911 147.121 13.1533 147.618 13.296C148.129 13.4258 148.639 13.5815 149.149 13.7631C149.66 13.9447 150.087 14.2561 150.432 14.6972C150.789 15.1254 150.968 15.6703 150.968 16.332C150.968 17.2661 150.61 17.9992 149.896 18.5311C149.194 19.0631 148.307 19.3291 147.235 19.3291C146.291 19.3291 145.481 19.128 144.805 18.7258C144.129 18.3235 143.637 17.7657 143.331 17.0521L145.111 16.0011C145.442 16.9353 146.151 17.4024 147.235 17.4024C148.32 17.4024 148.862 17.0391 148.862 16.3125C148.862 16.0011 148.684 15.7481 148.326 15.5535C147.982 15.3589 147.555 15.1968 147.044 15.067C146.546 14.9243 146.043 14.7621 145.532 14.5804C145.021 14.3988 144.588 14.1004 144.23 13.6852C143.886 13.2571 143.714 12.7186 143.714 12.0699C143.714 11.1747 144.045 10.4546 144.709 9.90968C145.385 9.36476 146.221 9.09229 147.216 9.09229C148.007 9.09229 148.709 9.27393 149.322 9.63722C149.947 9.98752 150.426 10.4805 150.757 11.1163L149.015 12.1088C148.684 11.3693 148.084 10.9995 147.216 10.9995C146.82 10.9995 146.489 11.0904 146.221 11.272C145.953 11.4407 145.819 11.6937 145.819 12.031ZM154.625 7.49645C154.369 7.75593 154.063 7.88568 153.706 7.88568C153.349 7.88568 153.037 7.75593 152.769 7.49645C152.513 7.22399 152.386 6.90612 152.386 6.54283C152.386 6.17955 152.513 5.86816 152.769 5.60868C153.024 5.33622 153.336 5.19999 153.706 5.19999C154.076 5.19999 154.389 5.33622 154.644 5.60868C154.899 5.86816 155.027 6.17955 155.027 6.54283C155.027 6.90612 154.893 7.22399 154.625 7.49645ZM152.673 19.0761V9.34529H154.74V19.0761H152.673ZM162.48 11.3693H160.106V16.0401C160.106 16.4423 160.196 16.7342 160.374 16.9158C160.553 17.0845 160.814 17.1818 161.159 17.2078C161.516 17.2208 161.957 17.2142 162.48 17.1883V19.0761C160.898 19.2707 159.762 19.1344 159.073 18.6674C158.384 18.1873 158.039 17.3115 158.039 16.0401V11.3693H156.278V9.34529H158.039V7.24345L160.106 6.62068V9.34529H162.48V11.3693ZM170.992 9.34529H173.193L169.518 19.3874C168.599 21.9044 167.043 23.0981 164.848 22.9684V21.0028C165.498 21.0417 166.022 20.899 166.417 20.5746C166.813 20.2632 167.138 19.7702 167.393 19.0955L167.489 18.9009L163.431 9.34529H165.69L168.542 16.4098L170.992 9.34529Z" fill="#0F1214"/>
</g>
<defs>
<clipPath id="clip0_11190_1550">
<rect width="174" height="23" fill="white" transform="translate(0 0.5)"/>
</clipPath>
</defs>
</svg>
